{
  "accessors": [
    {
      "bufferView": 2,
      "componentType": 5126,
      "count": 70,
      "max": [
        66.21820068359375,
        81.92120361328125,
        115.82990264892578
      ],
      "min": [
        -66.21820068359375,
        16.752700805664062,
        67.426803588867188
      ],
      "type": "VEC3"
    },
    {
      "bufferView": 2,
      "byteOffset": 840,
      "componentType": 5126,
      "count": 70,
      "max": [
        0.35769599676132202,
        0.6753966212272644,
        0.8799472451210022
      ],
      "min": [
        -0.35769599676132202,
        -0.675498366355896,
        -0.87998896837234497
      ],
      "type": "VEC3"
    },
    {
      "bufferView": 3,
      "componentType": 5126,
      "count": 70,
      "max": [
        -0.93303322792053223,
        0.20913438498973846,
        0.29092642664909363,
        1
      ],
      "min": [
        -0.99991226196289062,
        -0.1888904869556427,
        -0.30664956569671631,
        -1
      ],
      "type": "VEC4"
    },
    {
      "bufferView": 1,
      "componentType": 5126,
      "count": 70,
      "max": [
        0.88609999418258667,
        0.99479997158050537
      ],
      "min": [
        0.62129998207092285,
        0.8507000207901001
      ],
      "type": "VEC2"
    },
    {
      "bufferView": 0,
      "componentType": 5125,
      "count": 288,
      "max": [
        69
      ],
      "min": [
        0
      ],
      "type": "SCALAR"
    },
    {
      "bufferView": 2,
      "byteOffset": 1680,
      "componentType": 5126,
      "count": 4265,
      "max": [
        93.962699890136719,
        194.14939880371094,
        116.27670288085938
      ],
      "min": [
        -93.962699890136719,
        -197.29289245605469,
        6.8628997802734375
      ],
      "type": "VEC3"
    },
    {
      "bufferView": 2,
      "byteOffset": 52860,
      "componentType": 5126,
      "count": 4265,
      "max": [
        1,
        1,
        1
      ],
      "min": [
        -1,
        -1,
        -1
      ],
      "type": "VEC3"
    },
    {
      "bufferView": 3,
      "byteOffset": 1120,
      "componentType": 5126,
      "count": 4265,
      "max": [
        1,
        0.9999966025352478,
        0.99994194507598877,
        1
      ],
      "min": [
        -1,
        -1,
        -1,
        -1
      ],
      "type": "VEC4"
    },
    {
      "bufferView": 1,
      "byteOffset": 560,
      "componentType": 5126,
      "count": 4265,
      "max": [
        0.99470001459121704,
        0.99449998140335083
      ],
      "min": [
        0.012099999934434891,
        0.0052999998442828655
      ],
      "type": "VEC2"
    },
    {
      "bufferView": 0,
      "byteOffset": 1152,
      "componentType": 5125,
      "count": 10506,
      "max": [
        4264
      ],
      "min": [
        0
      ],
      "type": "SCALAR"
    },
    {
      "bufferView": 2,
      "byteOffset": 104040,
      "componentType": 5126,
      "count": 6795,
      "max": [
        93.962699890136719,
        194.14939880371094,
        116.27670288085938
      ],
      "min": [
        -93.962699890136719,
        -201.35150146484375,
        -0.0019000000320374966
      ],
      "type": "VEC3"
    },
    {
      "bufferView": 2,
      "byteOffset": 185580,
      "componentType": 5126,
      "count": 6795,
      "max": [
        1,
        1,
        1
      ],
      "min": [
        -1,
        -1,
        -1
      ],
      "type": "VEC3"
    },
    {
      "bufferView": 3,
      "byteOffset": 69360,
      "componentType": 5126,
      "count": 6795,
      "max": [
        1,
        1,
        1,
        1
      ],
      "min": [
        -1,
        -1,
        -1,
        -1
      ],
      "type": "VEC4"
    },
    {
      "bufferView": 1,
      "byteOffset": 34680,
      "componentType": 5126,
      "count": 6795,
      "max": [
        0.99470001459121704,
        0.99330002069473267
      ],
      "min": [
        0.0032999999821186066,
        0.0040000001899898052
      ],
      "type": "VEC2"
    },
    {
      "bufferView": 0,
      "byteOffset": 43176,
      "componentType": 5125,
      "count": 16956,
      "max": [
        6794
      ],
      "min": [
        0
      ],
      "type": "SCALAR"
    },
    {
      "bufferView": 2,
      "byteOffset": 267120,
      "componentType": 5126,
      "count": 3033,
      "max": [
        93.962699890136719,
        194.14939880371094,
        115.91410064697266
      ],
      "min": [
        -93.962699890136719,
        -196.47940063476562,
        7.1893000602722168
      ],
      "type": "VEC3"
    },
    {
      "bufferView": 2,
      "byteOffset": 303516,
      "componentType": 5126,
      "count": 3033,
      "max": [
        1,
        1,
        1
      ],
      "min": [
        -1,
        -1,
        -1
      ],
      "type": "VEC3"
    },
    {
      "bufferView": 3,
      "byteOffset": 178080,
      "componentType": 5126,
      "count": 3033,
      "max": [
        1,
        1,
        0.99995684623718262,
        1
      ],
      "min": [
        -1,
        -1,
        -0.99993324279785156,
        -1
      ],
      "type": "VEC4"
    },
    {
      "bufferView": 1,
      "byteOffset": 89040,
      "componentType": 5126,
      "count": 3033,
      "max": [
        0.98559999465942383,
        0.98769998550415039
      ],
      "min": [
        0.012099999934434891,
        0.0054999999701976776
      ],
      "type": "VEC2"
    },
    {
      "bufferView": 0,
      "byteOffset": 111000,
      "componentType": 5125,
      "count": 5847,
      "max": [
        3032
      ],
      "min": [
        0
      ],
      "type": "SCALAR"
    },
    {
      "bufferView": 2,
      "byteOffset": 339912,
      "componentType": 5126,
      "count": 10082,
      "max": [
        93.962699890136719,
        194.14939880371094,
        117.86630249023438
      ],
      "min": [
        -93.962699890136719,
        -201.35150146484375,
        0.64840000867843628
      ],
      "type": "VEC3"
    },
    {
      "bufferView": 2,
      "byteOffset": 460896,
      "componentType": 5126,
      "count": 10082,
      "max": [
        1,
        1,
        1
      ],
      "min": [
        -1,
        -1,
        -0.99984687566757202
      ],
      "type": "VEC3"
    },
    {
      "bufferView": 3,
      "byteOffset": 226608,
      "componentType": 5126,
      "count": 10082,
      "max": [
        1,
        0.99999850988388062,
        0.99999856948852539,
        1
      ],
      "min": [
        -1,
        -0.99999850988388062,
        -1,
        -1
      ],
      "type": "VEC4"
    },
    {
      "bufferView": 1,
      "byteOffset": 113304,
      "componentType": 5126,
      "count": 10082,
      "max": [
        0.99470001459121704,
        0.99059998989105225
      ],
      "min": [
        0.0032999999821186066,
        0.0040000001899898052
      ],
      "type": "VEC2"
    },
    {
      "bufferView": 0,
      "byteOffset": 134388,
      "componentType": 5125,
      "count": 33324,
      "max": [
        10081
      ],
      "min": [
        0
      ],
      "type": "SCALAR"
    }
  ],
  "asset": {
    "extras": {
      "author": "Willy Decarpentrie (https://sketchfab.com/skudgee)",
      "license": "CC-BY-4.0 (http://creativecommons.org/licenses/by/4.0/)",
      "source": "https://sketchfab.com/models/96909aba3ea249adb9044b0449e39379",
      "title": "Racing Car"
    },
    "generator": "Sketchfab-3.19.6",
    "version": "2.0"
  },
  "bufferViews": [
    {
      "buffer": 0,
      "byteLength": 267684,
      "byteOffset": 0,
      "name": "floatBufferViews",
      "target": 34963
    },
    {
      "buffer": 0,
      "byteLength": 193960,
      "byteOffset": 267684,
      "byteStride": 8,
      "name": "floatBufferViews",
      "target": 34962
    },
    {
      "buffer": 0,
      "byteLength": 581880,
      "byteOffset": 461644,
      "byteStride": 12,
      "name": "floatBufferViews",
      "target": 34962
    },
    {
      "buffer": 0,
      "byteLength": 387920,
      "byteOffset": 1043524,
      "byteStride": 16,
      "name": "floatBufferViews",
      "target": 34962
    }
  ],
  "buffers": [
    {
      "byteLength": 1431444,
      "uri": "scene.bin"
    }
  ],
  "extensionsRequired": [
    "KHR_materials_pbrSpecularGlossiness"
  ],
  "extensionsUsed": [
    "KHR_materials_pbrSpecularGlossiness"
  ],
  "images": [
    {
      "uri": "textures/Opaque_diffuse.jpeg"
    },
    {
      "uri": "textures/Opaque_normal.jpeg"
    },
    {
      "uri": "textures/Opaque_specularGlossiness.png"
    },
    {
      "uri": "textures/Opaque_emissive.jpeg"
    },
    {
      "uri": "textures/Alpha_diffuse.jpeg"
    },
    {
      "uri": "textures/Alpha_specularGlossiness.png"
    }
  ],
  "materials": [
    {
      "alphaMode": "BLEND",
      "doubleSided": true,
      "emissiveFactor": [
        0,
        0,
        0
      ],
      "extensions": {
        "KHR_materials_pbrSpecularGlossiness": {
          "diffuseFactor": [
            0.38,
            0.38,
            0.38,
            0.20999999999999999
          ],
          "diffuseTexture": {
            "index": 4,
            "texCoord": 0
          },
          "glossinessFactor": 1,
          "specularFactor": [
            1,
            1,
            1
          ],
          "specularGlossinessTexture": {
            "index": 5,
            "texCoord": 0
          }
        }
      },
      "name": "Alpha"
    },
    {
      "doubleSided": true,
      "emissiveFactor": [
        1,
        1,
        1
      ],
      "emissiveTexture": {
        "index": 3,
        "texCoord": 0
      },
      "extensions": {
        "KHR_materials_pbrSpecularGlossiness": {
          "diffuseFactor": [
            1,
            1,
            1,
            1
          ],
          "diffuseTexture": {
            "index": 0,
            "texCoord": 0
          },
          "glossinessFactor": 1,
          "specularFactor": [
            1,
            1,
            1
          ],
          "specularGlossinessTexture": {
            "index": 2,
            "texCoord": 0
          }
        }
      },
      "name": "Opaque",
      "normalTexture": {
        "index": 1,
        "scale": 1,
        "texCoord": 0
      }
    }
  ],
  "meshes": [
    {
      "primitives": [
        {
          "attributes": {
            "NORMAL": 1,
            "POSITION": 0,
            "TANGENT": 2,
            "TEXCOORD_0": 3
          },
          "indices": 4,
          "material": 0,
          "mode": 4
        }
      ]
    },
    {
      "primitives": [
        {
          "attributes": {
            "NORMAL": 6,
            "POSITION": 5,
            "TANGENT": 7,
            "TEXCOORD_0": 8
          },
          "indices": 9,
          "material": 1,
          "mode": 4
        }
      ]
    },
    {
      "primitives": [
        {
          "attributes": {
            "NORMAL": 11,
            "POSITION": 10,
            "TANGENT": 12,
            "TEXCOORD_0": 13
          },
          "indices": 14,
          "material": 1,
          "mode": 4
        }
      ]
    },
    {
      "primitives": [
        {
          "attributes": {
            "NORMAL": 16,
            "POSITION": 15,
            "TANGENT": 17,
            "TEXCOORD_0": 18
          },
          "indices": 19,
          "material": 1,
          "mode": 4
        }
      ]
    },
    {
      "primitives": [
        {
          "attributes": {
            "NORMAL": 21,
            "POSITION": 20,
            "TANGENT": 22,
            "TEXCOORD_0": 23
          },
          "indices": 24,
          "material": 1,
          "mode": 4
        }
      ]
    }
  ],
  "nodes": [
    {
      "children": [
        1
      ],
      "name": "RootNode (gltf orientation matrix)",
      "rotation": [
        -0.70710678118654746,
        -0,
        -0,
        0.70710678118654757
      ]
    },
    {
      "children": [
        2
      ],
      "name": "RootNode (model correction matrix)"
    },
    {
      "children": [
        3,
        4,
        5,
        6,
        7
      ],
      "name": "RacingCar.obj.cleaner"
    },
    {
      "mesh": 0,
      "name": ""
    },
    {
      "mesh": 1,
      "name": ""
    },
    {
      "mesh": 2,
      "name": ""
    },
    {
      "mesh": 3,
      "name": ""
    },
    {
      "mesh": 4,
      "name": ""
    }
  ],
  "samplers": [
    {
      "magFilter": 9729,
      "minFilter": 9987,
      "wrapS": 10497,
      "wrapT": 10497
    }
  ],
  "scene": 0,
  "scenes": [
    {
      "name": "OSG_Scene",
      "nodes": [
        0
      ]
    }
  ],
  "textures": [
    {
      "sampler": 0,
      "source": 0
    },
    {
      "sampler": 0,
      "source": 1
    },
    {
      "sampler": 0,
      "source": 2
    },
    {
      "sampler": 0,
      "source": 3
    },
    {
      "sampler": 0,
      "source": 4
    },
    {
      "sampler": 0,
      "source": 5
    }
  ]
}

